<svg width="33" height="32" viewBox="0 0 33 32" fill="none" xmlns="http://www.w3.org/2000/svg">
<path d="M4.68215 3.58149L17.054 15.9533L4.77018 28.5988C4.75804 28.5781 4.7464 28.5568 4.73527 28.5356C4.70998 28.4875 4.6862 28.4385 4.66444 28.3884C4.53898 28.098 4.48283 27.7793 4.50458 27.458V4.54018C4.48637 4.2083 4.54859 3.87997 4.68215 3.58149Z" fill="#FF2767"/>
<path d="M5.39092 2.82517C5.4324 2.80544 5.4749 2.78824 5.5179 2.77205C5.68738 2.70831 5.86798 2.67289 6.05213 2.66733C6.44471 2.6562 6.82818 2.78369 7.13577 3.02702L21.6137 11.2601L17.7759 15.2101L5.39092 2.82517Z" fill="#FF2767"/>
<path d="M22.539 11.7948L18.5089 15.9432L22.6968 20.131L27.3293 17.5014C28.7798 16.6727 28.7798 15.3255 27.3293 14.5069L22.539 11.7948Z" fill="#FF2767"/>
<path d="M21.7573 20.6567L17.787 16.6864L5.58316 29.2494C5.73291 29.2985 5.89024 29.3268 6.05061 29.3324C6.44218 29.3455 6.82616 29.2211 7.13577 28.9808L21.7573 20.6567Z" fill="#FF2767"/>
</svg>
