<svg width="32" height="32" viewBox="0 0 32 32" fill="none" xmlns="http://www.w3.org/2000/svg">
<path d="M23.4341 16.8504C23.446 15.8277 23.7175 14.8248 24.2231 13.9357C24.7287 13.0466 25.4518 12.3006 26.3247 11.7674C25.7696 10.9763 25.0379 10.3253 24.1875 9.86604C23.3371 9.40682 22.3914 9.15202 21.4254 9.12184C19.3799 8.90137 17.3835 10.3467 16.3301 10.3467C15.2768 10.3467 13.6478 9.12184 11.9085 9.12184C10.7848 9.15839 9.68966 9.48566 8.7301 10.0717C7.77054 10.6577 6.9793 11.4825 6.43359 12.4656C4.11868 16.6177 5.83343 22.6071 8.09934 25.9631C9.23843 27.5921 10.549 29.4048 12.3005 29.3314C14.052 29.2579 14.6276 28.2535 16.6853 28.2535C18.743 28.2535 19.3064 29.3314 21.0824 29.2946C22.8584 29.2579 24.0587 27.6656 25.1488 26.0243C25.9669 24.8699 26.5954 23.5923 27.0106 22.2397C25.9509 21.792 25.0466 21.0422 24.4106 20.0838C23.7745 19.1253 23.4349 18.0007 23.4341 16.8504V16.8504Z" fill="white"/>
<path d="M20.0414 6.94128C21.0346 5.7482 21.5225 4.21431 21.4009 2.66666C19.8827 2.83052 18.4805 3.55566 17.4692 4.69986C16.9773 5.26034 16.6008 5.91233 16.3612 6.6185C16.1216 7.32468 16.0237 8.07117 16.0729 8.81526C16.833 8.82275 17.5848 8.65804 18.2721 8.33349C18.9594 8.00894 19.5643 7.53297 20.0414 6.94128V6.94128Z" fill="white"/>
</svg>
