<svg width="32" height="32" viewBox="0 0 32 32" fill="none" xmlns="http://www.w3.org/2000/svg">
<path d="M23.4341 16.8504C23.446 15.8277 23.7175 14.8248 24.2231 13.9357C24.7287 13.0466 25.4518 12.3005 26.3247 11.7674C25.7696 10.9762 25.0379 10.3252 24.1875 9.86602C23.3371 9.40681 22.3914 9.15201 21.4254 9.12182C19.3799 8.90135 17.3835 10.3466 16.3301 10.3466C15.2768 10.3466 13.6478 9.12182 11.9085 9.12182C10.7848 9.15838 9.68966 9.48565 8.7301 10.0717C7.77054 10.6577 6.9793 11.4825 6.43359 12.4656C4.11868 16.6177 5.83343 22.6071 8.09934 25.9631C9.23843 27.5921 10.549 29.4048 12.3005 29.3313C14.052 29.2579 14.6276 28.2535 16.6853 28.2535C18.743 28.2535 19.3064 29.3313 21.0824 29.2946C22.8584 29.2579 24.0587 27.6656 25.1488 26.0243C25.9669 24.8699 26.5954 23.5923 27.0106 22.2396C25.9509 21.792 25.0466 21.0422 24.4106 20.0838C23.7745 19.1253 23.4349 18.0007 23.4341 16.8504Z" fill="#FF2767"/>
<path d="M20.0414 6.94128C21.0346 5.7482 21.5225 4.2143 21.4009 2.66666C19.8827 2.83051 18.4805 3.55565 17.4692 4.69986C16.9773 5.26033 16.6008 5.91232 16.3612 6.61849C16.1216 7.32467 16.0237 8.07117 16.0729 8.81525C16.833 8.82274 17.5848 8.65803 18.2721 8.33348C18.9594 8.00893 19.5643 7.53296 20.0414 6.94128Z" fill="#FF2767"/>
</svg>
